<mxfile host="app.diagrams.net" modified="2023-05-17T04:49:37.418Z" agent="Mozilla/5.0 (X11; Ubuntu; Linux x86_64; rv:96.0) Gecko/20100101 Firefox/96.0" version="21.3.2" etag="gnup0NO3dEGtiCd3woVm" type="github">
  <diagram name="Page-1" id="RQ0SHue4rdjuWKjwK8MA">
    <mxGraphModel>
      <root>
        <mxCell id="0" />
        <mxCell id="1" parent="0" />
      </root>
    </mxGraphModel>
  </diagram>
</mxfile>
